# xmcd
#
# Track frame offsets:
#	150
#	9753
#	19203
#	22275
#	24142
#	27215
#	28758
#	34324
#	37645
#	40154
#	43129
#	46829
#	50499
#	55761
#	60124
#	63737
#	67016
#	70588
#	73787
#	78123
#	81637
#	84984
#	88054
#	92846
#	97071
#	101194
#	106381
#	109414
#	113640
#	117494
#	125644
#	126725
#	131602
#	134615
#	136878
#	140553
#	144224
#	150117
#	154996
#	158573
#	162257
#	168043
#	171739
#	174205
#	179454
#	184139
#	185971
#	187739
#	194867
#	197235
#	201690
#
# Disc length: 2746 seconds
#
# Revision: 0
# Processed by: cddbd v1.5.2PL0 Copyright (c) Steve Scherf et al.
# Submitted via: audiograbber 1.83.01
#
DISCID=e20ab833
DTITLE=Mick Kinsella - Blues Harp From Scratch
DYEAR=1900
DGENRE=
TTITLE0=Intro - the 'C' Scale - Exercise 1
TTITLE1='C' Scale - Exercises 2-7
TTITLE2=Oh Susanna (Solo)
TTITLE3=The High Octave - Exercises 9-10
TTITLE4=Amazing Grace (Solo)
TTITLE5=Blues Type Scale In G - Exercise 12
TTITLE6=G Blues Scale - Exercise 13-16
TTITLE7=Easy Streat (Solo)
TTITLE8=Trouble Free Blues (Solo)
TTITLE9=D to Db Bend - Exercises 19-20
TTITLE10=Sundrive Blues (Solo)
TTITLE11=A to Ab Bend - Exercises 22-24
TTITLE12=Note Bending Riffs - Exercises 25-28
TTITLE13=Blue Mood (Solo)
TTITLE14=Hot Summer Blues (Solo)
TTITLE15=B to Bb Bend - Exercises 31-33
TTITLE16=Cloudy Skies (Solo)
TTITLE17=G to Gb Bend - Exercises 35-37
TTITLE18=Blues Riffs With Bends - Exercises 38-41
TTITLE19=Downtown Blues (Solo)
TTITLE20=Three Is A Crowd (Solo)
TTITLE21=Full Tone Bends - Exercises 44-46
TTITLE22=Full Tone Bend Riffs - 47-50
TTITLE23=Two Step Blues (Solo)
TTITLE24=Direct Bending - Exercises 52-55
TTITLE25=Direct Bend Blues Riffs - Exercises 56-60
TTITLE26=Blues Scale In G - Exercises 61-62
TTITLE27=Blues Scale Riffs - Exercises 63-66
TTITLE28=After Midnight (Solo)
TTITLE29=Blues Riffs - Exercises 68-76
TTITLE30=Blow Bending - Exercsie 77
TTITLE31=Blow Bend Riffs - Exercises 78-82
TTITLE32=High Time Blues (Solo)
TTITLE33=The Wah Wah - Exercises 84-86
TTITLE34=Blues Riffs With "Wah Wah" - Exercises 87-90
TTITLE35=Raining Down (Solo)
TTITLE36=The Head Roll - Exercises 92-94
TTITLE37=Head Roll Riffs - Exercises 95-99
TTITLE38=Rolling South (Solo)
TTITLE39=The Tongue Roll - Exercises 101-103
TTITLE40=Tongue Roll Riffs - Exercises 104-108
TTITLE41=Southern Jive (Solo)
TTITLE42=Tongue Roll and Wah Wah - Exercises 110-111
TTITLE43=Blues Riffs With Tongue Roll And Wah Wah - Exercises 112-116
TTITLE44=Trouble 'n' Booze (Solo)
TTITLE45=Shaking The Harp - Exercises 118-119
TTITLE46=Throat and Jaw Vibrato - Exersises 120-121
TTITLE47=Blues Riffs Using Tone Control - Exercises 122-125
TTITLE48=Note Splitting - Exercises 126-127
TTITLE49=Note Splitting Riffs - Exercises 128-132
TTITLE50=Lake Shore Drive (Solo)
EXTD=
EXTT0=
EXTT1=
EXTT2=
EXTT3=
EXTT4=
EXTT5=
EXTT6=
EXTT7=
EXTT8=
EXTT9=
EXTT10=
EXTT11=
EXTT12=
EXTT13=
EXTT14=
EXTT15=
EXTT16=
EXTT17=
EXTT18=
EXTT19=
EXTT20=
EXTT21=
EXTT22=
EXTT23=
EXTT24=
EXTT25=
EXTT26=
EXTT27=
EXTT28=
EXTT29=
EXTT30=
EXTT31=
EXTT32=
EXTT33=
EXTT34=
EXTT35=
EXTT36=
EXTT37=
EXTT38=
EXTT39=
EXTT40=
EXTT41=
EXTT42=
EXTT43=
EXTT44=
EXTT45=
EXTT46=
EXTT47=
EXTT48=
EXTT49=
EXTT50=
PLAYORDER=
